<?xml version="1.0" ?><!-- Uploaded to: SVG Repo, www.svgrepo.com, Generator: SVG Repo Mixer Tools -->
<svg width="800px" height="800px" viewBox="0 0 32 32" data-name="Layer 1" id="Layer_1" xmlns="http://www.w3.org/2000/svg" xmlns:xlink="http://www.w3.org/1999/xlink"><defs><style>.cls-1{fill:url(#linear-gradient);}.cls-2{fill:url(#linear-gradient-2);}.cls-3{fill:#577590;}</style><linearGradient gradientUnits="userSpaceOnUse" id="linear-gradient" x1="6.65" x2="27.27" y1="6.65" y2="27.27"><stop offset="0" stop-color="#78d2c4"/><stop offset="1" stop-color="#52ceb7"/></linearGradient><linearGradient id="linear-gradient-2" x1="6" x2="12" xlink:href="#linear-gradient" y1="5" y2="5"/></defs><path class="cls-1" d="M23.5,2h-12a.47.47,0,0,0-.35.15l-5,5A.47.47,0,0,0,6,7.5v20A2.5,2.5,0,0,0,8.5,30h15A2.5,2.5,0,0,0,26,27.5V4.5A2.5,2.5,0,0,0,23.5,2Z"/><path class="cls-2" d="M11.69,2a.47.47,0,0,0-.54.11l-5,5A.47.47,0,0,0,6,7.69.5.5,0,0,0,6.5,8h3A2.5,2.5,0,0,0,12,5.5v-3A.5.5,0,0,0,11.69,2Z"/><path class="cls-3" d="M12.66,11a.49.49,0,0,0-.63.31l-1,3.08-1-3.08a.5.5,0,1,0-.94.32L10.47,16,9,20.34a.49.49,0,0,0,.31.63.45.45,0,0,0,.16,0,.49.49,0,0,0,.47-.34l1-3.08,1,3.08a.49.49,0,0,0,.47.34.45.45,0,0,0,.16,0,.49.49,0,0,0,.31-.63L11.53,16,13,11.66A.49.49,0,0,0,12.66,11Z"/><path class="cls-3" d="M17.57,11a.52.52,0,0,0-.55.36l-1,3.4-1-3.4a.52.52,0,0,0-.55-.36.51.51,0,0,0-.43.5v9a.5.5,0,0,0,1,0V14.91l.52,1.73a.52.52,0,0,0,1,0L17,14.91V20.5a.5.5,0,0,0,1,0v-9A.51.51,0,0,0,17.57,11Z"/><path class="cls-3" d="M22.5,20H20V11.5a.5.5,0,0,0-1,0v9a.5.5,0,0,0,.5.5h3a.5.5,0,0,0,0-1Z"/></svg>